<svg width="32" height="32" viewBox="0 0 32 32" fill="none" xmlns="http://www.w3.org/2000/svg">
<g clip-path="url(#clip0_216_2182)">
<path d="M23.2273 28.5129C21.1023 29.7441 18.6336 30.4441 16.0023 30.4441C8.02735 30.4441 1.55859 23.9754 1.55859 16.0004C1.55859 8.02539 8.02735 1.55664 16.0023 1.55664C18.6336 1.55664 21.1023 2.26289 23.2273 3.48789C18.9086 5.98164 16.0023 10.6504 16.0023 16.0004C16.0023 21.3504 18.9086 26.0129 23.2273 28.5129Z" fill="#CCD0F4"/>
<path d="M30.4687 9.15542C29.1625 6.38667 27.0937 4.06167 24.4875 2.43042C20.8625 0.167917 16.5687 -0.550833 12.4062 0.411667C8.24374 1.36792 4.69999 3.89292 2.43749 7.51792C0.168742 11.1429 -0.550008 15.4304 0.412492 19.5992C1.37499 23.7617 3.89999 27.3054 7.51874 29.5679C10.0687 31.1617 12.9937 32.0054 15.9875 32.0054H16.1812C19.1625 31.9679 22.0625 31.1054 24.575 29.5179C25.3062 29.0554 25.5187 28.0929 25.0562 27.3617C24.5937 26.6304 23.6312 26.4179 22.9 26.8804C20.8812 28.1617 18.5437 28.8554 16.1437 28.8867C13.6812 28.9179 11.275 28.2367 9.17499 26.9304C6.25624 25.1054 4.22499 22.2554 3.45624 18.9054C2.68124 15.5554 3.26249 12.1054 5.08749 9.18667C8.84999 3.16792 16.8125 1.33042 22.8312 5.09292C24.9312 6.40542 26.5937 8.27417 27.6437 10.4992C28.6687 12.6679 29.0687 15.0742 28.8 17.4492C28.7062 18.3054 29.3187 19.0804 30.1812 19.1742C31.0375 19.2679 31.8125 18.6554 31.9062 17.7929C32.2375 14.8367 31.7375 11.8492 30.4687 9.15542Z" fill="#4D5BD9"/>
<path d="M21.1648 10.5746L13.6336 18.1121L10.8398 15.3184C10.2273 14.7059 9.23984 14.7059 8.62734 15.3184C8.01484 15.9309 8.01484 16.9184 8.62734 17.5309L12.5273 21.4309C12.8336 21.7371 13.2336 21.8871 13.6336 21.8871C14.0336 21.8871 14.4336 21.7371 14.7398 21.4309L23.3773 12.7871C23.9898 12.1746 23.9898 11.1871 23.3773 10.5746C22.7648 9.96211 21.7773 9.96211 21.1648 10.5746Z" fill="#4D5BD9"/>
</g>
<defs>
<clipPath id="clip0_216_2182">
<rect width="32" height="32" fill="white"/>
</clipPath>
</defs>
</svg>
