<svg width="41" height="56" viewBox="0 0 41 56" fill="none" xmlns="http://www.w3.org/2000/svg">
<ellipse cx="20.5" cy="53.5" rx="7.5" ry="2.5" fill="#CCCDD8"/>
<path d="M19 45.03C19 42.1548 16.8278 39.7816 14.127 38.7956C10.6481 37.5256 7.34374 35.4218 5.13258 32.747C1.89341 28.8286 0.267807 23.8238 0.58616 18.7499C0.904512 13.676 3.14293 8.91373 6.84647 5.43096C10.55 1.94819 15.4407 0.00630752 20.5246 5.55214e-06C25.6147 -0.00378489 30.5147 1.93335 34.2263 5.4167C37.9378 8.90005 40.1815 13.6675 40.5003 18.7476C40.819 23.8277 39.1888 28.8382 35.9417 32.7582C33.7159 35.4453 30.3636 37.5542 26.8482 38.8187C24.1602 39.7855 22 42.1434 22 45V45C22 45 22 45 22 45C22 45 22 48.955 22 51.3491C22 52.0684 21.6405 52.7397 21.042 53.1387V53.1387C20.6886 53.3743 20.2665 53.5202 19.857 53.4075C19.45 53.2954 19 53.0477 19 52.5C19 50.5875 19 45.03 19 45.03C19 45.03 19 45.03 19 45.03V45.03ZM20.5246 25C21.8507 25 23.1225 24.4732 24.0601 23.5355C24.9978 22.5979 25.5246 21.3261 25.5246 20C25.5246 18.6739 24.9978 17.4022 24.0601 16.4645C23.1225 15.5268 21.8507 15 20.5246 15C19.1985 15 17.9268 15.5268 16.9891 16.4645C16.0514 17.4022 15.5246 18.6739 15.5246 20C15.5246 21.3261 16.0514 22.5979 16.9891 23.5355C17.9268 24.4732 19.1985 25 20.5246 25Z" fill="url(#paint0_linear_322_2021)"/>
<defs>
<linearGradient id="paint0_linear_322_2021" x1="26.6754" y1="53.5" x2="1.56972" y2="-1.15524" gradientUnits="userSpaceOnUse">
<stop stop-color="#FA0007"/>
<stop offset="1" stop-color="#FC7E00"/>
</linearGradient>
</defs>
</svg>
