<svg width="91" height="46" viewBox="0 0 91 46" fill="none" xmlns="http://www.w3.org/2000/svg">
<g clip-path="url(#clip0_216_2275)">
<path d="M1.74997 40.0473H0V31.5732H1.74997V40.0473Z" fill="#010101"/>
<path d="M78.2031 31.478H80.0267L79.0521 34.1424H78.2059V31.478H78.2031Z" fill="#010101"/>
<path d="M15.337 35.5847C15.337 36.0145 15.2572 36.4153 15.0971 36.7874C14.9372 37.1595 14.7168 37.4855 14.4425 37.7681C14.168 38.0507 13.8421 38.2724 13.4708 38.4371C13.096 38.5987 12.6987 38.6792 12.273 38.6792H4.54931V40.0781H2.67969V31.4699L12.2699 31.4556C12.696 31.4556 13.096 31.5364 13.4677 31.6976C13.8421 31.8592 14.1652 32.0813 14.4397 32.3639C14.7143 32.6464 14.9313 32.9755 15.0943 33.3529C15.2544 33.731 15.3345 34.1318 15.3345 34.5613V35.585H15.3373L15.337 35.5847ZM12.2696 36.7787C12.601 36.7787 12.8843 36.6633 13.1189 36.4328C13.3533 36.2019 13.4705 35.919 13.4705 35.5847V34.5641C13.4705 34.2297 13.353 33.944 13.1189 33.7073C12.8843 33.4708 12.6014 33.3526 12.2696 33.3526H4.549V36.7759H12.2696V36.7787Z" fill="#010101"/>
<path d="M19.2158 31.4692H25.1617C25.5875 31.4692 25.9875 31.55 26.3595 31.7113C26.7339 31.8729 27.0567 32.0952 27.3313 32.3747C27.6058 32.6573 27.8229 32.9833 27.9861 33.3579C28.146 33.7328 28.226 34.1339 28.226 34.5606V40.0743H26.3595V38.0125H18.0181V40.0743H16.1484V34.5606C16.1484 34.1339 16.2285 33.7328 16.3884 33.3579C16.5485 32.9833 16.7687 32.6545 17.0432 32.3747C17.3171 32.0921 17.6433 31.8729 18.015 31.7113C18.3922 31.55 18.7898 31.4692 19.2155 31.4692H19.2158ZM18.0181 36.1236H26.3623V34.5606C26.3623 34.2259 26.2448 33.9433 26.0107 33.7097C25.7761 33.4761 25.4935 33.3579 25.1617 33.3579H19.2158C18.8844 33.3579 18.6012 33.4764 18.3668 33.7097C18.1325 33.9433 18.0153 34.229 18.0153 34.5606V36.1236H18.0181Z" fill="#010101"/>
<path d="M30.9084 34.8309H35.4707L38.8182 31.4685H41.4339L37.1687 35.7713L41.4339 40.0738H38.8182L35.4707 36.6967H30.9084V40.0738H29.0391V31.4653H30.9084V34.8309Z" fill="#010101"/>
<path d="M55.0916 36.3373C54.8514 36.3373 54.6427 36.3054 54.4596 36.2421C54.2766 36.1785 54.0994 36.0603 53.9223 35.8816L49.5312 31.4692H52.1469L55.137 34.4739H56.9121L59.9164 31.4692H62.5321L58.1271 35.8816C57.9614 36.0575 57.7843 36.1785 57.5984 36.2421C57.4126 36.3054 57.198 36.3373 56.9609 36.3373V40.0774H55.0913V36.3373H55.0916Z" fill="#010101"/>
<path d="M66.7414 40.0774C66.1497 40.0774 65.5981 39.9648 65.0833 39.7399C64.5688 39.515 64.1171 39.2066 63.7284 38.8142C63.3398 38.4221 63.0337 37.9664 62.8108 37.4474C62.5879 36.928 62.4766 36.3719 62.4766 35.7746C62.4766 35.1776 62.5879 34.618 62.8108 34.0934C63.034 33.5684 63.3398 33.1155 63.7284 32.7262C64.1171 32.3401 64.5688 32.0316 65.0833 31.8067C65.5981 31.5815 66.1497 31.4692 66.7414 31.4692H73.1103C73.7021 31.4692 74.2564 31.5815 74.7768 31.8067C75.2968 32.0316 75.7485 32.3373 76.1403 32.7262C76.5289 33.113 76.8347 33.5684 77.0579 34.0934C77.2808 34.618 77.3925 35.1776 77.3925 35.7746C77.3925 36.3719 77.2808 36.928 77.0579 37.4474C76.8347 37.9664 76.5292 38.4221 76.1403 38.8142C75.7516 39.2066 75.2968 39.515 74.7768 39.7399C74.2564 39.9648 73.7017 40.0774 73.1103 40.0774H66.7414ZM73.1103 38.1913C73.4417 38.1913 73.7534 38.128 74.0452 38.0041C74.3365 37.8772 74.5913 37.7041 74.8083 37.4848C75.0257 37.2658 75.1973 37.0088 75.3231 36.715C75.4489 36.4209 75.5086 36.1064 75.5086 35.7718C75.5086 35.4371 75.4458 35.1227 75.3231 34.8289C75.1973 34.5347 75.0287 34.2777 74.8083 34.0587C74.5913 33.8395 74.3365 33.6667 74.0452 33.5397C73.7537 33.4128 73.442 33.3523 73.1103 33.3523H66.7414C66.41 33.3523 66.0983 33.4159 65.8065 33.5397C65.5152 33.6667 65.2604 33.8395 65.0434 34.0587C64.826 34.2777 64.6544 34.5347 64.5286 34.8289C64.4028 35.1227 64.3431 35.4371 64.3431 35.7718C64.3431 36.1061 64.4059 36.4205 64.5286 36.715C64.6544 37.0088 64.826 37.2658 65.0434 37.4848C65.2604 37.7041 65.5152 37.8772 65.8065 38.0041C66.098 38.1311 66.4097 38.1913 66.7414 38.1913H73.1103Z" fill="#010101"/>
<path d="M91.0012 38.1921V40.0782H83.9002C83.4745 40.0782 83.0741 39.9974 82.7025 39.8362C82.3277 39.6746 82.0046 39.4522 81.7307 39.1758C81.4562 38.8989 81.2388 38.5701 81.0759 38.1952C80.916 37.8175 80.8359 37.4163 80.8359 36.9868V31.4731H82.7056V36.9868C82.7056 37.3212 82.8227 37.6069 83.0571 37.8433C83.2918 38.0801 83.5747 38.198 83.9061 38.198H91.0012V38.1924V38.1921Z" fill="#010101"/>
<path d="M59.1327 27.1837C57.7148 27.1837 56.4314 26.9532 55.3251 26.4828C50.4456 24.4095 48.9819 19.7779 47.5668 15.2995C46.2231 11.0487 44.9539 7.03159 40.8121 5.57527C36.0095 3.88813 29.1976 5.18881 21.6279 9.24056C14.5415 13.0328 5.85437 20.4183 0 27.1837V24.5882C11.3541 11.467 29.7062 -0.152075 41.3606 3.9371C46.3032 5.67321 47.7637 10.2961 49.1758 14.7661C50.5306 19.0599 51.8143 23.1176 55.9735 24.8852C63.157 27.936 80.4715 16.9345 90.9995 0.499512V3.57934C81.3091 18.7109 67.7249 27.1834 59.1321 27.1834L59.1327 27.1837Z" fill="#37348F"/>
<path d="M58.1715 42.7788V43.2822H56.8964V45.4522H56.3965V43.2822H55.1211V42.7788H58.1715Z" fill="#010101"/>
<path d="M60.8013 42.7246C61.0175 42.7274 61.2228 42.7586 61.4107 42.8179C61.599 42.8771 61.7648 42.9651 61.9051 43.0808C62.0455 43.1968 62.1577 43.341 62.2421 43.5138C62.3262 43.6862 62.3714 43.8843 62.3797 44.1136C62.3711 44.3397 62.3262 44.5409 62.2421 44.7134C62.1577 44.8859 62.0455 45.03 61.9051 45.1463C61.7648 45.262 61.5987 45.35 61.4107 45.4092C61.2228 45.4685 61.0175 45.4997 60.8013 45.4997C60.5849 45.4997 60.3799 45.4685 60.1916 45.4092C60.0033 45.35 59.8379 45.262 59.6973 45.1463C59.5569 45.0303 59.4443 44.8859 59.3602 44.7134C59.2758 44.5409 59.231 44.34 59.2227 44.1136C59.231 43.8874 59.2761 43.6862 59.3602 43.5138C59.4443 43.3413 59.5569 43.1968 59.6973 43.0808C59.8376 42.9651 60.0033 42.8771 60.1916 42.8179C60.3799 42.7586 60.5821 42.7271 60.8013 42.7246ZM60.8013 43.2283C60.6523 43.2312 60.5147 43.2536 60.3855 43.296C60.2563 43.3385 60.1468 43.4005 60.054 43.4769C59.9613 43.5534 59.8855 43.6469 59.8348 43.7542C59.7814 43.8618 59.756 43.9804 59.756 44.1108C59.756 44.2411 59.7814 44.3597 59.8348 44.4673C59.8883 44.5749 59.9613 44.6681 60.054 44.7474C60.1465 44.8266 60.259 44.8859 60.3855 44.9283C60.5147 44.9707 60.6523 44.9935 60.8013 44.9935C60.9501 44.9935 61.0904 44.971 61.2172 44.9283C61.3436 44.8859 61.4559 44.8238 61.5486 44.7474C61.6414 44.6709 61.7171 44.5777 61.7675 44.4673C61.821 44.3597 61.8464 44.2411 61.8464 44.1108C61.8464 43.9807 61.821 43.8618 61.7675 43.7542C61.714 43.6469 61.6414 43.5534 61.5486 43.4769C61.4559 43.3977 61.3436 43.3385 61.2172 43.296C61.088 43.2536 60.9504 43.2308 60.8013 43.2283Z" fill="#010101"/>
<path d="M66.2499 42.7783V45.4517H65.75V42.7783H66.2499Z" fill="#010101"/>
<path d="M67.8368 42.7783L69.9294 44.6058V42.7783H70.4321V45.4517H70.1316L68.039 43.6242V45.4517H67.5391V42.7783H67.8368Z" fill="#010101"/>
<path d="M74.1943 42.7782V43.2816H72.2226V43.9775H74.0258V44.4812H72.2226V45.4488H71.7227V42.7754H74.1943V42.7782Z" fill="#010101"/>
<path d="M75.9843 42.7783V45.4517H75.4844V42.7783H75.9843Z" fill="#010101"/>
<path d="M77.5787 42.7788L79.6715 44.6063V42.7788H80.1743V45.4522H79.8737L77.7812 43.6247V45.4522H77.2812V42.7788H77.5787Z" fill="#010101"/>
<path d="M81.9648 42.7788V45.4522H81.4648V42.7788H81.9648Z" fill="#010101"/>
<path d="M86.3085 42.7783V43.2817H85.0334V45.4517H84.5332V43.2817H83.2578V42.7783H86.3085Z" fill="#010101"/>
<path d="M88.2589 42.7783L89.3036 44.026L90.3431 42.7783H91.0004L89.5537 44.5097V45.4517H89.0479V44.5097L87.6016 42.7783H88.2589Z" fill="#010101"/>
</g>
<defs>
<clipPath id="clip0_216_2275">
<rect width="91" height="45" fill="white" transform="translate(0 0.5)"/>
</clipPath>
</defs>
</svg>
