<svg width="48" height="49" viewBox="0 0 48 49" fill="none" xmlns="http://www.w3.org/2000/svg">
<g clip-path="url(#clip0_216_4680)">
<path d="M24 48.0049C37.2548 48.0049 48 37.2597 48 24.0049C48 10.75 37.2548 0.00488281 24 0.00488281C10.7452 0.00488281 0 10.75 0 24.0049C0 37.2597 10.7452 48.0049 24 48.0049Z" fill="#E6E8FA"/>
<g clip-path="url(#clip1_216_4680)">
<path d="M31.5 14.2549H28.5V30.0049H31.5V14.2549Z" fill="#3344D3"/>
<path d="M25.5 24.0049C22.1865 24.0049 19.5 26.6907 19.5 30.0049C19.5 33.3184 22.1865 36.0049 25.5 36.0049C28.8135 36.0049 31.5 33.3184 31.5 30.0049C31.5 26.6907 28.8135 24.0049 25.5 24.0049ZM25.5 33.0049C23.8455 33.0049 22.5 31.6587 22.5 30.0049C22.5 28.3503 23.8455 27.0049 25.5 27.0049C27.1545 27.0049 28.5 28.3503 28.5 30.0049C28.5 31.6587 27.1545 33.0049 25.5 33.0049Z" fill="#4D5BD9"/>
<path d="M15.9995 13.0044C15.7234 13.0044 15.5 13.2278 15.5 13.5046C15.5 13.78 15.7234 14.0041 15.9995 14.0041H17.9463V13.0044H15.9995Z" fill="#99A1E9"/>
<path d="M15.5 15.5056C15.5 15.781 15.7234 16.0051 15.9995 16.0051H17.9463V15.0054H15.9995C15.7234 15.0054 15.5 15.2287 15.5 15.5056Z" fill="#99A1E9"/>
<path d="M22.5 14.2549H19.5V30.0049H22.5V14.2549Z" fill="#4D5BD9"/>
<path d="M32.4995 18.0049L31.4998 19.0046H28.4998L27.5 18.0049V12.0063H32.4995V18.0049Z" fill="#4D5BD9"/>
<path d="M29.0002 12.5066C29.2764 12.5066 29.4998 12.2825 29.4998 12.0063H28.5C28.5 12.2825 28.7241 12.5066 29.0002 12.5066Z" fill="#4D5BD9"/>
<path d="M30.9995 12.5066C31.2756 12.5066 31.4998 12.2825 31.4998 12.0063H30.5C30.5 12.2825 30.7234 12.5066 30.9995 12.5066Z" fill="#4D5BD9"/>
<path opacity="0.2" d="M22 20.0044C22 20.2805 22.2241 20.5046 22.5002 20.5046V19.5049C22.2241 19.5049 22 19.7283 22 20.0044Z" fill="#4D5BD9"/>
<path opacity="0.2" d="M20.0002 20.0044C20.0002 19.7282 19.7761 19.5049 19.5 19.5049V20.5046C19.7761 20.5046 20.0002 20.2805 20.0002 20.0044Z" fill="#4D5BD9"/>
<path opacity="0.2" d="M31 20.0044C31 20.2805 31.2241 20.5046 31.5002 20.5046V19.5049C31.2241 19.5049 31 19.7283 31 20.0044Z" fill="#3344D3"/>
<path opacity="0.2" d="M29.0002 20.0044C29.0002 19.7282 28.7761 19.5049 28.5 19.5049V20.5046C28.7761 20.5046 29.0002 20.2805 29.0002 20.0044Z" fill="#3344D3"/>
<path d="M30.0002 14.0044C29.7241 14.0044 29.5 14.2285 29.5 14.5046V19.0024H30.5005V14.5046C30.5005 14.2286 30.2764 14.0044 30.0002 14.0044Z" fill="#4D5BD9"/>
<path d="M23.0005 14.0044H19V19.0024H23.0005V14.0044Z" fill="#4D5BD9"/>
<path d="M23.0005 16.5049C23.0005 16.7803 22.7764 17.0044 22.5002 17.0044H18.0002C17.7241 17.0044 17.5 16.7803 17.5 16.5049V12.5044C17.5 12.2283 17.7241 12.0049 18.0002 12.0049H22.5002C22.7764 12.0049 23.0005 12.2283 23.0005 12.5044V16.5049Z" fill="#4D5BD9"/>
<path d="M23.4998 27.7703V24.3462C23.1504 24.47 22.8164 24.6245 22.5 24.8076V30.0049C22.5 29.1179 22.8867 28.3203 23.4998 27.7703Z" fill="#3344D3"/>
</g>
</g>
<defs>
<clipPath id="clip0_216_4680">
<rect width="48" height="48" fill="white" transform="translate(0 0.00488281)"/>
</clipPath>
<clipPath id="clip1_216_4680">
<rect width="24" height="24" fill="white" transform="translate(12 12.0049)"/>
</clipPath>
</defs>
</svg>
