<svg width="48" height="49" viewBox="0 0 48 49" fill="none" xmlns="http://www.w3.org/2000/svg">
<g clip-path="url(#clip0_216_4658)">
<path d="M24 48.0049C37.2548 48.0049 48 37.2597 48 24.0049C48 10.75 37.2548 0.00488281 24 0.00488281C10.7452 0.00488281 0 10.75 0 24.0049C0 37.2597 10.7452 48.0049 24 48.0049Z" fill="#E6E8FA"/>
<g clip-path="url(#clip1_216_4658)">
<path d="M27.8 18.4768C27.6901 18.5963 27.5379 18.6684 27.3758 18.6778C27.2136 18.6871 27.0542 18.6329 26.9313 18.5268C26.1317 17.7886 25.0835 17.3787 23.9953 17.3787C22.9071 17.3787 21.8589 17.7886 21.0594 18.5268C20.937 18.6324 20.7785 18.6865 20.6171 18.6778C20.4557 18.669 20.304 18.5981 20.1937 18.4799L18.6875 16.8736C19.3043 16.148 20.0701 15.5636 20.9329 15.1602C21.7956 14.7569 22.7351 14.544 23.6875 14.5361H24.3437C25.2896 14.5466 26.2223 14.7591 27.0793 15.1596C27.9363 15.5601 28.6977 16.1391 29.3125 16.858L27.8 18.4768Z" fill="#4D5BD9"/>
<path d="M23.6883 16.0986C22.1341 16.1055 20.6335 16.6674 19.457 17.683L20.2102 18.4861C20.3204 18.6044 20.4721 18.6753 20.6335 18.684C20.7949 18.6928 20.9534 18.6386 21.0758 18.533C21.8753 17.7949 22.9236 17.385 24.0117 17.385C25.0999 17.385 26.1481 17.7949 26.9477 18.533C27.0706 18.6392 27.23 18.6934 27.3922 18.684C27.5543 18.6747 27.7065 18.6026 27.8164 18.483L28.5664 17.6799C27.3893 16.6742 25.8927 16.1203 24.3445 16.1174L23.6883 16.0986Z" fill="#4D5BD9"/>
<path d="M17.4375 28.0674H16.1875C15.856 28.0674 15.538 27.9357 15.3036 27.7013C15.0692 27.4668 14.9375 27.1489 14.9375 26.8174V22.4424C14.9375 22.1109 15.0692 21.7929 15.3036 21.5585C15.538 21.3241 15.856 21.1924 16.1875 21.1924H17.4375V28.0674Z" fill="#3344D3"/>
<path d="M14.9375 24.6299H17.4375V28.0674H15.875C15.6264 28.0674 15.3879 27.9686 15.2121 27.7928C15.0363 27.617 14.9375 27.3785 14.9375 27.1299V24.6299Z" fill="#3344D3"/>
<path d="M30.5625 21.1924H31.8125C32.144 21.1924 32.462 21.3241 32.6964 21.5585C32.9308 21.7929 33.0625 22.1109 33.0625 22.4424V26.8174C33.0625 27.1489 32.9308 27.4668 32.6964 27.7013C32.462 27.9357 32.144 28.0674 31.8125 28.0674H30.5625V21.1924Z" fill="#3344D3"/>
<path d="M30.5625 24.6299H33.0625V27.1299C33.0625 27.3785 32.9637 27.617 32.7879 27.7928C32.6121 27.9686 32.3736 28.0674 32.125 28.0674H30.5625V24.6299Z" fill="#3344D3"/>
<path d="M30.5625 21.1924C30.5625 20.8472 30.2827 20.5674 29.9375 20.5674C29.5923 20.5674 29.3125 20.8472 29.3125 21.1924V28.0674C29.3125 28.4126 29.5923 28.6924 29.9375 28.6924C30.2827 28.6924 30.5625 28.4126 30.5625 28.0674V21.1924Z" fill="#3344D3"/>
<path d="M31.8125 20.8799H31.5C31.4194 19.0283 30.6267 17.2794 29.2875 15.9984C27.9482 14.7173 26.1658 14.0031 24.3125 14.0049H23.6875C21.8342 14.0031 20.0518 14.7173 18.7125 15.9984C17.3733 17.2794 16.5806 19.0283 16.5 20.8799H16.1875C15.7731 20.8799 15.3757 21.0445 15.0826 21.3375C14.7896 21.6306 14.625 22.028 14.625 22.4424V26.8174C14.625 27.2318 14.7896 27.6292 15.0826 27.9222C15.3757 28.2153 15.7731 28.3799 16.1875 28.3799H17.1813C17.2562 28.5866 17.4015 28.7603 17.5916 28.8708C17.7817 28.9812 18.0046 29.0213 18.2213 28.9841C18.438 28.9468 18.6347 28.8346 18.777 28.6671C18.9194 28.4995 18.9983 28.2872 19 28.0674V21.1924C18.9983 20.9725 18.9194 20.7603 18.777 20.5927C18.6347 20.4251 18.438 20.3129 18.2213 20.2757C18.0046 20.2385 17.7817 20.2786 17.5916 20.389C17.4015 20.4995 17.2562 20.6732 17.1813 20.8799H17.1406C17.2033 19.5244 17.6873 18.2223 18.525 17.1549L19.9375 18.5455C20.1711 18.7772 20.4866 18.9075 20.8156 18.908C21.1023 18.9079 21.3799 18.8073 21.6 18.6236C22.2731 18.0648 23.1205 17.7589 23.9953 17.7589C24.8702 17.7589 25.7175 18.0648 26.3906 18.6236C26.6308 18.8184 26.9346 18.9173 27.2434 18.9011C27.5522 18.885 27.844 18.7549 28.0625 18.5361L29.4656 17.1299C30.3116 18.203 30.7991 19.5147 30.8594 20.8799H30.8188C30.7438 20.6732 30.5985 20.4995 30.4084 20.389C30.2183 20.2786 29.9954 20.2385 29.7787 20.2757C29.562 20.3129 29.3653 20.4251 29.223 20.5927C29.0806 20.7603 29.0017 20.9725 29 21.1924V28.0674C29.0017 28.2872 29.0806 28.4995 29.223 28.6671C29.3653 28.8346 29.562 28.9468 29.7787 28.9841C29.9954 29.0213 30.2183 28.9812 30.4084 28.8708C30.5985 28.7603 30.7438 28.5866 30.8188 28.3799H31.1875V29.0049C31.1875 29.7508 30.8912 30.4662 30.3637 30.9936C29.8363 31.5211 29.1209 31.8174 28.375 31.8174H26.4563C26.3871 31.5497 26.2313 31.3125 26.013 31.1429C25.7948 30.9733 25.5264 30.8808 25.25 30.8799H24.625C24.2935 30.8799 23.9755 31.0116 23.7411 31.246C23.5067 31.4804 23.375 31.7984 23.375 32.1299C23.375 32.4614 23.5067 32.7793 23.7411 33.0138C23.9755 33.2482 24.2935 33.3799 24.625 33.3799H25.25C25.5264 33.379 25.7948 33.2865 26.013 33.1169C26.2313 32.9472 26.3871 32.71 26.4563 32.4424H28.375C29.2867 32.4424 30.161 32.0802 30.8057 31.4356C31.4503 30.7909 31.8125 29.9166 31.8125 29.0049V28.3799C32.2269 28.3799 32.6243 28.2153 32.9174 27.9222C33.2104 27.6292 33.375 27.2318 33.375 26.8174V22.4424C33.375 22.028 33.2104 21.6306 32.9174 21.3375C32.6243 21.0445 32.2269 20.8799 31.8125 20.8799ZM15.25 26.8174V22.4424C15.25 22.1937 15.3488 21.9553 15.5246 21.7795C15.7004 21.6037 15.9389 21.5049 16.1875 21.5049H17.125V27.7549H16.1875C15.9389 27.7549 15.7004 27.6561 15.5246 27.4803C15.3488 27.3045 15.25 27.066 15.25 26.8174ZM18.0625 20.8799C18.1454 20.8799 18.2249 20.9128 18.2835 20.9714C18.3421 21.03 18.375 21.1095 18.375 21.1924V28.0674C18.375 28.1503 18.3421 28.2298 18.2835 28.2884C18.2249 28.347 18.1454 28.3799 18.0625 28.3799C17.9796 28.3799 17.9001 28.347 17.8415 28.2884C17.7829 28.2298 17.75 28.1503 17.75 28.0674V21.1924C17.75 21.1095 17.7829 21.03 17.8415 20.9714C17.9001 20.9128 17.9796 20.8799 18.0625 20.8799ZM27.6156 18.0893C27.5068 18.1965 27.3625 18.2602 27.2099 18.2683C27.0573 18.2763 26.907 18.2282 26.7875 18.133C26.0023 17.4815 25.0141 17.1248 23.9937 17.1248C22.9734 17.1248 21.9852 17.4815 21.2 18.133C21.0807 18.2273 20.9311 18.2749 20.7792 18.2669C20.6274 18.2588 20.4836 18.1957 20.375 18.0893L18.9344 16.683C19.5451 16.0352 20.2817 15.5189 21.099 15.1658C21.9164 14.8128 22.7972 14.6304 23.6875 14.6299H24.3125C25.2003 14.6301 26.0788 14.8111 26.8944 15.162C27.71 15.5128 28.4455 16.0261 29.0562 16.6705L27.6156 18.0893ZM25.25 32.7549H24.625C24.4592 32.7549 24.3003 32.689 24.1831 32.5718C24.0658 32.4546 24 32.2956 24 32.1299C24 31.9641 24.0658 31.8052 24.1831 31.6879C24.3003 31.5707 24.4592 31.5049 24.625 31.5049H25.25C25.4158 31.5049 25.5747 31.5707 25.6919 31.6879C25.8092 31.8052 25.875 31.9641 25.875 32.1299C25.875 32.2956 25.8092 32.4546 25.6919 32.5718C25.5747 32.689 25.4158 32.7549 25.25 32.7549ZM29.9375 28.3799C29.8546 28.3799 29.7751 28.347 29.7165 28.2884C29.6579 28.2298 29.625 28.1503 29.625 28.0674V21.1924C29.625 21.1095 29.6579 21.03 29.7165 20.9714C29.7751 20.9128 29.8546 20.8799 29.9375 20.8799C30.0204 20.8799 30.0999 20.9128 30.1585 20.9714C30.2171 21.03 30.25 21.1095 30.25 21.1924V28.0674C30.25 28.1503 30.2171 28.2298 30.1585 28.2884C30.0999 28.347 30.0204 28.3799 29.9375 28.3799ZM31.8125 27.7549H30.875V21.5049H31.8125C32.0611 21.5049 32.2996 21.6037 32.4754 21.7795C32.6512 21.9553 32.75 22.1937 32.75 22.4424V26.8174C32.75 27.066 32.6512 27.3045 32.4754 27.4803C32.2996 27.6561 32.0611 27.7549 31.8125 27.7549Z" fill="#3344D3"/>
<path d="M19 20.6972C19 20.3148 18.5523 20.0049 18 20.0049C17.4477 20.0049 17 20.3148 17 20.6972V28.3126C17 28.6949 17.4477 29.0049 18 29.0049C18.5523 29.0049 19 28.6949 19 28.3126V20.6972Z" fill="#4D5BD9"/>
<path d="M31 20.6972C31 20.3148 30.5523 20.0049 30 20.0049C29.4477 20.0049 29 20.3148 29 20.6972V28.3126C29 28.6949 29.4477 29.0049 30 29.0049C30.5523 29.0049 31 28.6949 31 28.3126V20.6972Z" fill="#4D5BD9"/>
<g clip-path="url(#clip2_216_4658)">
<path d="M25.7267 30.8701H24.1277C23.6861 30.8701 23.3281 31.2445 23.3281 31.7062V32.5423C23.3281 33.0041 23.6861 33.3784 24.1277 33.3784H25.7267C26.1683 33.3784 26.5262 33.0041 26.5262 32.5423V31.7062C26.5262 31.2445 26.1683 30.8701 25.7267 30.8701Z" fill="#4D5BD9"/>
</g>
</g>
</g>
<defs>
<clipPath id="clip0_216_4658">
<rect width="48" height="48" fill="white" transform="translate(0 0.00488281)"/>
</clipPath>
<clipPath id="clip1_216_4658">
<rect width="20" height="20" fill="white" transform="translate(14 14.0049)"/>
</clipPath>
<clipPath id="clip2_216_4658">
<rect x="23.3281" y="30.8701" width="3.19812" height="2.5083" rx="1.25415" fill="white"/>
</clipPath>
</defs>
</svg>
