<svg width="48" height="49" viewBox="0 0 48 49" fill="none" xmlns="http://www.w3.org/2000/svg">
<path d="M24 48.0049C37.2548 48.0049 48 37.2597 48 24.0049C48 10.75 37.2548 0.00488281 24 0.00488281C10.7452 0.00488281 0 10.75 0 24.0049C0 37.2597 10.7452 48.0049 24 48.0049Z" fill="#E6E8FA"/>
<g clip-path="url(#clip0_216_4713)">
<path d="M35.9999 34.5039C35.9999 35.056 35.5516 35.5036 34.9994 35.5036H12.9998C12.4475 35.5036 12 35.056 12 34.5039V29.5037C12 28.9514 12.4475 28.5039 12.9998 28.5039H34.9994C35.5516 28.5039 35.9999 28.9514 35.9999 29.5037V34.5039Z" fill="#3344D3"/>
<path d="M27.0005 32.0042C27.0005 32.2803 26.7764 32.5037 26.5002 32.5037C26.2241 32.5037 26 32.2802 26 32.0042C26 31.7281 26.2241 31.5039 26.5002 31.5039C26.7764 31.5039 27.0005 31.728 27.0005 32.0042Z" fill="#4D5BD9"/>
<path d="M24.0005 32.0042C24.0005 32.2803 23.7764 32.5037 23.5002 32.5037C23.2241 32.5037 23 32.2802 23 32.0042C23 31.7281 23.2241 31.5039 23.5002 31.5039C23.7764 31.5039 24.0005 31.728 24.0005 32.0042Z" fill="#4D5BD9"/>
<path d="M30.0005 32.0042C30.0005 32.2803 29.7764 32.5037 29.5002 32.5037C29.2241 32.5037 29 32.2802 29 32.0042C29 31.7281 29.2241 31.5039 29.5002 31.5039C29.7764 31.5039 30.0005 31.728 30.0005 32.0042Z" fill="#4D5BD9"/>
<path d="M33.0005 32.0042C33.0005 32.2803 32.7764 32.5037 32.5002 32.5037C32.2241 32.5037 32 32.2802 32 32.0042C32 31.7281 32.2241 31.5039 32.5002 31.5039C32.7764 31.5039 33.0005 31.728 33.0005 32.0042Z" fill="#4D5BD9"/>
<path d="M16.5005 33.0042C15.949 33.0042 15.5 32.5552 15.5 32.0044C15.5 31.4529 15.949 31.0039 16.5005 31.0039C17.0512 31.0039 17.5002 31.4529 17.5002 32.0044C17.5003 32.5552 17.0512 33.0042 16.5005 33.0042Z" fill="#E6E8FA"/>
<path d="M16.5 30.5044C15.6709 30.5044 15 31.176 15 32.0043C15 32.8327 15.6709 33.5043 16.5 33.5043C17.3284 33.5043 18 32.8327 18 32.0043C18 31.176 17.3284 30.5044 16.5 30.5044ZM16.5 32.5038C16.2246 32.5038 15.9998 32.2797 15.9998 32.0043C15.9998 31.7282 16.2246 31.5041 16.5 31.5041C16.7754 31.5041 16.9995 31.7282 16.9995 32.0043C16.9995 32.2797 16.7754 32.5038 16.5 32.5038Z" fill="#6673DE"/>
<path d="M24.4998 18.5044H23.5V28.5041H24.4998V18.5044Z" fill="#99A1E9"/>
<path d="M24.0005 20.0042C23.449 20.0042 23 19.5552 23 19.0037C23 18.4521 23.449 18.0039 24.0005 18.0039C24.5513 18.0039 25.0002 18.4521 25.0002 19.0037C25.0002 19.5552 24.5513 20.0042 24.0005 20.0042Z" fill="#4D5BD9"/>
<path d="M24 17.5039C23.1709 17.5039 22.5 18.1755 22.5 19.0039C22.5 19.8323 23.1709 20.5039 24 20.5039C24.8284 20.5039 25.5 19.8323 25.5 19.0039C25.5 18.1755 24.8284 17.5039 24 17.5039ZM24 19.5042C23.7246 19.5042 23.4998 19.28 23.4998 19.0039C23.4998 18.7285 23.7246 18.5044 24 18.5044C24.2754 18.5044 24.4995 18.7285 24.4995 19.0039C24.4995 19.28 24.2754 19.5042 24 19.5042Z" fill="#4D5BD9"/>
<path d="M27.3979 16.3921C27.1218 16.3921 26.8984 16.6155 26.8984 16.8916C26.8984 16.9978 26.9307 17.0959 26.9878 17.1765C27.3218 17.7207 27.5005 18.3491 27.5005 19.0039C27.5005 19.6594 27.3218 20.2871 26.9878 20.832C26.9306 20.9126 26.8984 21.0107 26.8984 21.1162C26.8984 21.3922 27.1218 21.6164 27.3979 21.6164C27.5759 21.6164 27.7319 21.5234 27.8206 21.3834C28.252 20.6935 28.5009 19.8776 28.5009 19.0038C28.5009 18.13 28.252 17.3149 27.8206 16.6242C27.7319 16.4844 27.5759 16.3921 27.3979 16.3921Z" fill="#4D5BD9"/>
<path d="M30.1619 14.728L30.1611 14.7288C30.0732 14.5874 29.9165 14.4937 29.7378 14.4937C29.4616 14.4937 29.2383 14.7171 29.2383 14.9932C29.2383 15.0986 29.2705 15.196 29.3262 15.2766C29.5884 15.6502 29.8103 16.0508 29.9897 16.4741C30.3281 17.2754 30.4995 18.1265 30.4995 19.0039C30.4995 19.8821 30.3281 20.7332 29.9897 21.5337C29.8103 21.9577 29.5884 22.3584 29.3262 22.7312C29.2705 22.8118 29.2383 22.9099 29.2383 23.0146C29.2383 23.2908 29.4617 23.5149 29.7378 23.5149C29.9165 23.5149 30.0732 23.4211 30.1611 23.2798H30.1619C31.0049 22.0669 31.5 20.5933 31.5 19.0039C31.5 17.4146 31.0049 15.9409 30.1619 14.728Z" fill="#4D5BD9"/>
<path d="M32.4119 12.719L32.4111 12.7197C32.3203 12.5894 32.1701 12.5044 31.9995 12.5044C31.7241 12.5044 31.5 12.7278 31.5 13.0039C31.5 13.1203 31.5396 13.2273 31.6055 13.3115C31.6077 13.3144 31.6099 13.3166 31.6121 13.3188C32.0713 13.9318 32.4536 14.5961 32.7539 15.3066C33.249 16.477 33.4995 17.7214 33.4995 19.0038C33.4995 20.2871 33.249 21.5306 32.7539 22.7018C32.4536 23.4123 32.0713 24.0766 31.6121 24.6889C31.6099 24.6918 31.6077 24.694 31.6055 24.6962C31.5396 24.7811 31.5 24.8881 31.5 25.0038C31.5 25.2799 31.7241 25.5041 31.9995 25.5041C32.1702 25.5041 32.3203 25.4184 32.4111 25.2887L32.4119 25.2895C33.7236 23.5368 34.5 21.3615 34.5 19.0038C34.5 16.6469 33.7237 14.4716 32.4119 12.719Z" fill="#4D5BD9"/>
<path d="M20.603 16.3921C20.8784 16.3921 21.1025 16.6155 21.1025 16.8916C21.1025 16.9978 21.0696 17.0959 21.0132 17.1765C20.6784 17.7207 20.4998 18.3491 20.4998 19.0039C20.4998 19.6594 20.6784 20.2871 21.0132 20.832C21.0696 20.9126 21.1025 21.0107 21.1025 21.1162C21.1025 21.3922 20.8784 21.6164 20.603 21.6164C20.4243 21.6164 20.269 21.5234 20.1797 21.3834C19.749 20.6935 19.5 19.8776 19.5 19.0038C19.5 18.13 19.749 17.3149 20.1797 16.6242C20.269 16.4844 20.4243 16.3921 20.603 16.3921Z" fill="#4D5BD9"/>
<path d="M17.8374 14.728L17.8382 14.7288C17.9268 14.5874 18.0835 14.4937 18.2623 14.4937C18.5377 14.4937 18.7618 14.7171 18.7618 14.9932C18.7618 15.0986 18.7295 15.196 18.6739 15.2766C18.4117 15.6502 18.1898 16.0508 18.0103 16.4741C17.6719 17.2754 17.4998 18.1265 17.4998 19.0039C17.4998 19.8821 17.6719 20.7332 18.0103 21.5337C18.1898 21.9577 18.4117 22.3584 18.6739 22.7312C18.7296 22.8118 18.7618 22.9099 18.7618 23.0146C18.7618 23.2908 18.5377 23.5149 18.2623 23.5149C18.0836 23.5149 17.9268 23.4211 17.8382 23.2798H17.8374C16.9944 22.0669 16.5 20.5933 16.5 19.0039C16.5 17.4146 16.9944 15.9409 17.8374 14.728Z" fill="#4D5BD9"/>
<path d="M15.5874 12.719L15.5888 12.7197C15.6789 12.5894 15.8291 12.5044 15.9997 12.5044C16.2758 12.5044 16.5 12.7278 16.5 13.0039C16.5 13.1203 16.4604 13.2273 16.3937 13.3115C16.3915 13.3144 16.3901 13.3166 16.3871 13.3188C15.9286 13.9318 15.5463 14.5961 15.246 15.3066C14.751 16.477 14.4997 17.7214 14.4997 19.0038C14.4997 20.2871 14.7509 21.5306 15.246 22.7018C15.5463 23.4123 15.9286 24.0766 16.3871 24.6889C16.39 24.6918 16.3915 24.694 16.3937 24.6962C16.4604 24.7811 16.5 24.8881 16.5 25.0038C16.5 25.2799 16.2758 25.5041 15.9997 25.5041C15.8291 25.5041 15.6789 25.4184 15.5888 25.2887L15.5874 25.2895C14.2763 23.5368 13.5 21.3615 13.5 19.0038C13.5 16.6469 14.2763 14.4716 15.5874 12.719Z" fill="#4D5BD9"/>
</g>
<defs>
<clipPath id="clip0_216_4713">
<rect width="24" height="24" fill="white" transform="translate(12 12.0039)"/>
</clipPath>
</defs>
</svg>
