<svg width="1920" height="873" viewBox="0 0 1920 873" fill="none" xmlns="http://www.w3.org/2000/svg">
<g clip-path="url(#clip0_472_5432)">
<rect width="1920" height="873" fill="url(#paint0_linear_472_5432)"/>
<g opacity="0.1">
<path d="M2437.56 988.884C2406.58 659.449 1955.35 430.626 1609.04 419.023C1209.96 405.692 1046.62 684.095 747.039 583.49C473.648 491.778 470.011 212.892 268.371 159.772C83.0582 110.963 -220.751 265.62 -746.742 1075.76" stroke="#9086FF" stroke-miterlimit="10"/>
<path d="M-725.158 1113.7C-205.645 315.328 98.6299 154.183 286.937 195.657C426.491 226.587 474.546 364.119 579.796 474.712C632.253 531.562 698.004 574.491 771.145 599.646C1010.71 682.231 1162.67 530.556 1425.26 474.491C1492.2 460.001 1560.61 453.431 1629.08 454.918C1977.04 461.332 2424.39 662.242 2463.03 980.083" stroke="#9086FF" stroke-miterlimit="10"/>
<path d="M-703.511 1151.54C-190.478 364.983 114.09 197.398 304.993 231.575C445.321 256.71 496.889 387.95 602.61 493.187C656.471 548.142 722.167 590.071 794.687 615.777C1030.7 699.389 1181.89 563.414 1445.23 510.554C1512.16 496.981 1580.32 490.377 1648.61 490.847C1998.23 493.148 2441.69 665.013 2488 971.259" stroke="#9086FF" stroke-miterlimit="10"/>
<path d="M-681.916 1189.26C-175.486 414.685 129.543 240.725 323.276 267.446C464.486 286.905 519.345 411.728 625.703 511.673C680.85 564.697 746.437 605.646 818.284 631.909C1050.97 716.558 1200.87 596.204 1465.26 546.618C1532.22 533.815 1600.2 527.12 1668.37 526.615C2019.62 524.179 2459.17 667.62 2513.14 962.272" stroke="#9086FF" stroke-miterlimit="10"/>
<path d="M-660.335 1227.26C-160.378 464.337 144.881 284.104 341.613 303.377C483.532 317.207 541.965 435.628 648.912 530.109C705.385 581.23 770.985 621.246 842.277 648.06C1071.63 733.745 1220.43 629.077 1485.97 582.713C1552.81 570.831 1620.47 564.114 1688.34 562.621C2041.28 555.45 2476.92 670.524 2538.6 953.585" stroke="#9086FF" stroke-miterlimit="10"/>
<path d="M-638.974 1265.14C-145.325 513.986 160.638 322.012 359.954 339.252C502.232 351.4 564.605 459.132 672.007 548.597C729.78 597.727 795.39 636.806 866.101 664.203C1092.13 750.926 1239.7 661.937 1505.99 618.835C1572.78 607.726 1640.21 600.931 1707.87 598.493C2062.51 586.362 2494.23 673.238 2563.56 944.761" stroke="#9086FF" stroke-miterlimit="10"/>
<path d="M-617.104 1303.05C-130.218 563.694 175.54 371.258 378.251 374.841C521.388 378.085 587.342 482.98 695.156 567.143C754.162 614.262 819.79 652.426 889.923 680.402C1112.62 768.162 1259.14 694.805 1526.25 654.966C1592.98 644.699 1660.19 637.864 1727.62 634.488C2083.94 617.623 2511.76 675.906 2588.75 936.003" stroke="#9086FF" stroke-miterlimit="10"/>
<path d="M-595.517 1340.94C-115.279 613.338 190.826 414.521 396.575 411.054C540.319 408.439 610.214 506.325 718.309 585.576C778.502 630.641 844.176 667.872 913.753 696.376C1133.06 785.226 1278.52 727.613 1546.51 690.871C1608.86 682.393 1675.37 674.558 1747.38 670.2C2105.46 648.434 2529.29 678.742 2613.94 927.133" stroke="#9086FF" stroke-miterlimit="10"/>
<path d="M-573.93 1378.83C-100.06 663.052 206.085 458.407 414.864 446.814C559.248 438.85 633.141 529.73 741.577 603.958C802.961 646.946 868.717 683.319 937.749 712.471C1153.73 802.358 1298.02 760.315 1566.93 726.954C1629.54 719.167 1695.87 711.438 1767.36 706.094C2126.68 679.459 2546.82 681.523 2639.13 918.263" stroke="#9086FF" stroke-miterlimit="10"/>
<path d="M-552.283 1416.66C-84.9499 712.704 221.35 502.178 433.198 482.857C578.163 469.6 656.346 553.26 764.558 622.497C827.048 663.379 892.877 698.912 961.343 728.717C1174.05 819.643 1317.23 793.286 1587.03 762.908C1649.6 755.799 1715.99 748.072 1786.96 741.799C2148.37 710.053 2564.36 683.965 2664.33 909.167" stroke="#9086FF" stroke-miterlimit="10"/>
<path d="M-530.697 1454.55C-69.8992 762.352 236.607 546.063 451.367 518.724C596.91 500.228 679.164 576.546 787.591 641.038C851.181 679.731 917.131 714.405 985.052 744.854C1194.37 836.815 1336.45 826.086 1607.15 799.26C1669.97 792.955 1736.2 785.164 1806.58 778.015C2169.7 741.139 2581.71 687.02 2689.45 900.633" stroke="#9086FF" stroke-miterlimit="10"/>
<path d="M-509.11 1492.44C-54.7926 812.061 251.979 589.953 469.82 554.604C615.996 530.929 702.381 599.794 810.799 659.53C873.124 693.844 936.961 728.51 1008.99 761.003C1214.98 853.944 1355.95 858.957 1627.52 835.341C1690.48 829.777 1756.59 821.924 1826.56 813.907C2191.39 771.902 2599.47 689.754 2714.81 891.827" stroke="#9086FF" stroke-miterlimit="10"/>
<path d="M-487.521 1530.33C-39.6928 861.939 266.951 633.938 488.103 590.532C634.913 561.623 725.604 622.928 833.951 678.02C897.886 710.54 961.934 744.31 1032.81 777.146C1235.47 871.294 1375.28 891.763 1647.78 871.416C1710.87 866.651 1776.93 858.739 1846.21 849.785C2212.68 802.533 2616.89 692.474 2739.88 883.008" stroke="#9086FF" stroke-miterlimit="10"/>
<path d="M-466.049 1568.22C-24.6341 911.419 282.54 678.009 506.383 626.461C653.82 592.486 748.827 646.007 857.098 696.567C922.704 727.182 986.904 760.11 1056.41 793.336C1255.8 888.353 1394.37 924.673 1668.03 907.604C1731.31 903.527 1797.2 895.551 1865.95 885.78C2234.15 833.173 2634.42 695.198 2765.07 874.195" stroke="#9086FF" stroke-miterlimit="10"/>
<path d="M-444.287 1606.06C-9.52261 961.069 297.732 722.172 524.726 662.334C672.849 623.239 772.119 668.917 880.198 714.997C947.478 743.65 1011.94 775.854 1080.46 809.432C1276.41 905.481 1413.99 957.434 1688.29 943.621C1754.45 939.603 1820.37 932.198 1885.78 921.438C2255.56 863.753 2652.12 698.042 2790.26 865.324" stroke="#9086FF" stroke-miterlimit="10"/>
<path d="M-422.7 1643.95C5.58369 1010.78 313.381 766.189 542.84 698.199C691.647 654.041 795.24 691.765 903.405 733.49C972.362 760.125 1036.97 791.6 1104.29 825.575C1296.96 922.664 1433.37 990.3 1708.43 979.692C1774.5 976.526 1840.29 969.108 1905.41 957.485C2276.99 893.995 2669.48 700.759 2815.52 856.287" stroke="#9086FF" stroke-miterlimit="10"/>
<path d="M-401.114 1681.84C20.6346 1060.43 329.01 810.599 561.348 734.08C710.721 684.967 818.705 714.514 926.501 751.92C997.136 776.481 1061.88 807.396 1128.05 841.715C1317.34 939.838 1452.7 1023.11 1728.8 1015.77C1794.77 1013.38 1860.46 1005.9 1925.28 993.372C2298.34 924.628 2687.01 703.538 2840.7 847.699" stroke="#9086FF" stroke-miterlimit="10"/>
<path d="M-379.469 1719.74C35.7324 1110.36 344.198 854.822 579.631 770.009C729.857 715.84 842.009 737.143 949.597 770.408C1022.14 792.792 1086.86 823.139 1151.88 857.859C1337.84 956.906 1472.03 1055.97 1749.05 1051.9C1814.92 1050.26 1880.51 1042.7 1945.03 1029.31C2319.7 955.038 2704.54 706.263 2865.88 838.886" stroke="#9086FF" stroke-miterlimit="10"/>
<path d="M-357.883 1757.63C50.5679 1159.77 359.718 899.171 597.96 806.109C748.921 746.993 865.245 759.939 972.731 789.236C1046.78 809.595 1111.92 839.282 1175.69 874.341C1358.32 974.538 1491.39 1089.17 1769.29 1088.2C1835.06 1087.3 1900.56 1079.67 1964.77 1065.42C2341.06 985.559 2722.33 709.395 2891.06 830.298" stroke="#9086FF" stroke-miterlimit="10"/>
<path d="M-336.296 1795.52C65.8996 1209.49 375.294 943.523 616.251 841.812C768.062 777.696 888.507 782.17 995.896 807.388C1071.65 825.22 1136.85 854.74 1199.52 890.259C1378.76 991.49 1510.73 1121.75 1789.55 1124.17C1855.21 1124.04 1920.64 1116.33 1984.53 1101.19C2362.38 1015.57 2739.6 711.768 2916.26 821.258" stroke="#9086FF" stroke-miterlimit="10"/>
<path d="M-314.648 1833.35C81.0104 1259.14 390.86 988.157 634.367 877.676C786.967 808.671 911.482 804.557 1018.77 825.864C1096.22 841.226 1161.6 870.472 1223.07 906.219C1399.04 1008.55 1529.9 1154.5 1809.59 1160.12C1875.16 1160.7 1940.53 1152.92 2004.13 1136.95C2383.28 1045.11 2756.9 714.537 2941.34 812.383" stroke="#9086FF" stroke-miterlimit="10"/>
<path d="M-293.121 1871.24C338.395 958.426 762.628 798.788 1042.14 844.364C1347.27 894.109 1451.35 1184.2 1830.06 1196.26C2274.33 1210.35 2742.11 702.655 2966.64 803.574" stroke="#9086FF" stroke-miterlimit="10"/>
</g>
</g>
<defs>
<linearGradient id="paint0_linear_472_5432" x1="-98.4615" y1="864.9" x2="278.865" y2="-590.647" gradientUnits="userSpaceOnUse">
<stop offset="0.0665006" stop-color="#3E00C8"/>
<stop offset="0.319972" stop-color="#341BC8"/>
<stop offset="0.744525" stop-color="#0040BF"/>
</linearGradient>
<clipPath id="clip0_472_5432">
<rect width="1920" height="873" fill="white"/>
</clipPath>
</defs>
</svg>
