<svg width="48" height="49" viewBox="0 0 48 49" fill="none" xmlns="http://www.w3.org/2000/svg">
<g clip-path="url(#clip0_216_4647)">
<path d="M24 48.0049C37.2548 48.0049 48 37.2597 48 24.0049C48 10.75 37.2548 0.00488281 24 0.00488281C10.7452 0.00488281 0 10.75 0 24.0049C0 37.2597 10.7452 48.0049 24 48.0049Z" fill="#E6E8FA"/>
<path d="M30.8281 26.5611C31.0876 26.299 31.0775 25.8895 30.7962 25.6434C30.7962 25.6434 30.2227 25.1092 29.6338 24.7209C26.141 22.4181 21.5704 22.4719 18.1279 24.8821C17.626 25.2335 17.1988 25.6401 17.1988 25.6401C16.9239 25.8867 16.912 26.2997 17.1708 26.5611L18.1026 27.5021C18.362 27.7642 18.7945 27.7807 19.0756 27.54C19.0756 27.54 19.4455 27.1905 19.9263 26.8859C22.4675 25.2761 25.7391 25.3139 28.246 26.9991C28.663 27.2794 28.926 27.5358 28.926 27.5358C29.2024 27.7793 29.6376 27.7635 29.8963 27.5021L30.8281 26.5611Z" fill="#4D5BD9"/>
<path d="M27.151 30.2928C27.4174 30.0361 27.4039 29.635 27.1141 29.4027C27.1141 29.4027 27.0846 29.3535 26.7836 29.1663C25.0721 28.1016 22.8475 28.116 21.1498 29.2094C20.874 29.3871 20.883 29.403 20.883 29.403C20.5988 29.6377 20.5847 30.0365 20.8507 30.2928L23.5185 32.863C23.7849 33.1197 24.2172 33.1193 24.4832 32.863L27.151 30.2928Z" fill="#6673DE"/>
<path d="M34.5044 22.8647C34.7622 22.5961 34.7554 22.1687 34.4846 21.9087C34.4846 21.9087 33.8742 21.302 33.3009 20.8345C27.5616 16.1542 20.2689 16.1948 14.5567 20.9565C14.0353 21.3911 13.5167 21.9102 13.5167 21.9102C13.2503 22.1688 13.244 22.5968 13.5011 22.8647L14.4267 23.829C14.6845 24.0975 15.1103 24.1046 15.3756 23.8504C15.3756 23.8504 15.8315 23.3943 16.3201 22.9954C21.0826 19.1079 27.0017 19.1264 31.7531 23.051C32.218 23.435 32.6266 23.8459 32.6266 23.8459C32.8948 24.1051 33.3218 24.0968 33.5788 23.829L34.5044 22.8647Z" fill="#3344D3"/>
</g>
<defs>
<clipPath id="clip0_216_4647">
<rect width="48" height="48" fill="white" transform="translate(0 0.00488281)"/>
</clipPath>
</defs>
</svg>
